<svg id="visual" viewBox="0 0 900 600" width="900" height="600" xmlns="http://www.w3.org/2000/svg" xmlns:xlink="http://www.w3.org/1999/xlink" version="1.1"><path d="M0 529L9.3 513.2C18.7 497.3 37.3 465.7 56.2 441.8C75 418 94 402 112.8 400.3C131.7 398.7 150.3 411.3 169 421.3C187.7 431.3 206.3 438.7 225 453.5C243.7 468.3 262.3 490.7 281.2 479.3C300 468 319 423 337.8 400.7C356.7 378.3 375.3 378.7 394 389.5C412.7 400.3 431.3 421.7 450 429.3C468.7 437 487.3 431 506.2 443C525 455 544 485 562.8 503.2C581.7 521.3 600.3 527.7 619 504.2C637.7 480.7 656.3 427.3 675 413.7C693.7 400 712.3 426 731.2 423.8C750 421.7 769 391.3 787.8 397.8C806.7 404.3 825.3 447.7 844 450.7C862.7 453.7 881.3 416.3 890.7 397.7L900 379L900 601L890.7 601C881.3 601 862.7 601 844 601C825.3 601 806.7 601 787.8 601C769 601 750 601 731.2 601C712.3 601 693.7 601 675 601C656.3 601 637.7 601 619 601C600.3 601 581.7 601 562.8 601C544 601 525 601 506.2 601C487.3 601 468.7 601 450 601C431.3 601 412.7 601 394 601C375.3 601 356.7 601 337.8 601C319 601 300 601 281.2 601C262.3 601 243.7 601 225 601C206.3 601 187.7 601 169 601C150.3 601 131.7 601 112.8 601C94 601 75 601 56.2 601C37.3 601 18.7 601 9.3 601L0 601Z" fill="#000000" stroke-linecap="round" stroke-linejoin="miter"></path></svg>